# xmcd
#
# Track frame offsets:
#	150
#	16212
#	33565
#	54412
#	75557
#	100342
#	120742
#	137087
#	158187
#	186962
#	208972
#	226587
#
# Disc length: 3277 seconds
#
# Revision: 0
# Processed by: cddbd v1.5.1PL0 Copyright (c) Steve Scherf et al.
# Submitted via: dBpowerAMP V4.0
#
DISCID=9a0ccb0c
DTITLE=Sunpie - Sunpie
DYEAR=2001
DGENRE=Blues
TTITLE0=Lah Lah Song
TTITLE1=Kinshasa
TTITLE2=Mo Bien Comme Mo Ye'
TTITLE3=Tomato Song
TTITLE4=Loup Garou, Loup Garou
TTITLE5=Mother Earth
TTITLE6=Sally Brown
TTITLE7=I've Got A Date
TTITLE8=Gravel Hill
TTITLE9=La Cancion
TTITLE10=Bunny Bread
TTITLE11=Blues With a Groove
EXTD=
EXTT0=
EXTT1=
EXTT2=
EXTT3=
EXTT4=
EXTT5=
EXTT6=
EXTT7=
EXTT8=
EXTT9=
EXTT10=
EXTT11=
PLAYORDER=
